# xmcd
#
# Track frame offsets:
#	150
#	18907
#	33850
#	49825
#	70350
#	86052
#	103645
#	120590
#	137905
#	154210
#	170692
#	187650
#
# Disc length: 2776 seconds
#
# Revision: 0
# Processed by: cddbd v1.5.2PL0 Copyright (c) Steve Scherf et al.
# Submitted via: EZCDAudioConverter 7.1.5.1
#
DISCID=9b0ad60c
DTITLE=吉馬大對唱 - 吉馬大對唱 10 CD 典藏版
DYEAR=20110616
DGENRE=
TTITLE0=針線情
TTITLE1=素蘭小姐要出嫁
TTITLE2=雙人枕頭
TTITLE3=1990 台灣人
TTITLE4=內山姑娘要出嫁
TTITLE5=媽媽請您也保重
TTITLE6=碼頭惜別
TTITLE7=為你唱一首歌
TTITLE8=愛人跟人走
TTITLE9=絕情雨
TTITLE10=老兄行酒樓
TTITLE11=田庄兄哥
EXTD=
EXTT0=
EXTT1=
EXTT2=
EXTT3=
EXTT4=
EXTT5=
EXTT6=
EXTT7=
EXTT8=
EXTT9=
EXTT10=
EXTT11=
PLAYORDER=
